# Blender v2.91.0 OBJ File: ''
# www.blender.org
mtllib segment1.mtl
o Cylinder
v 1.000000 -0.007200 0.000000
v 1.000000 3.440669 0.000000
v 0.923880 3.440669 0.382683
v 0.923880 -0.007200 0.382683
v 0.707107 3.440669 0.707107
v 0.707107 -0.007200 0.707107
v 0.382683 3.440669 0.923880
v 0.382683 -0.007200 0.923880
v 0.000000 3.440669 1.000000
v 0.000000 -0.007200 1.000000
v -0.382684 3.440669 0.923880
v -0.382684 -0.007200 0.923880
v -0.707107 3.440669 0.707107
v -0.707107 -0.007200 0.707107
v -0.923880 3.440669 0.382683
v -0.923880 -0.007200 0.382683
v -1.000000 3.440669 0.000000
v -1.000000 -0.007200 0.000000
v -0.923880 3.440669 -0.382683
v -0.923880 -0.007200 -0.382683
v -0.707107 3.440669 -0.707107
v -0.707107 -0.007200 -0.707107
v -0.382684 3.440669 -0.923880
v -0.382684 -0.007200 -0.923880
v 0.000000 3.440669 -1.000000
v 0.000000 -0.007200 -1.000000
v 0.382684 3.440669 -0.923879
v 0.382684 -0.007200 -0.923879
v 0.707107 3.440669 -0.707107
v 0.707107 -0.007200 -0.707107
v 0.923880 3.440669 -0.382683
v 1.043884 3.440669 -0.432390
v 1.129892 3.440669 0.000000
v 0.923880 -0.007200 -0.382683
v -1.129892 3.440669 0.000000
v -1.043884 3.440669 -0.432391
v 1.043884 3.440669 0.432391
v 0.798954 3.440669 0.798954
v -0.798954 3.440669 -0.798954
v -0.432391 3.440669 -1.043884
v 0.432391 3.440669 1.043884
v 0.000000 3.440669 1.129892
v 0.000000 3.440669 -1.129892
v 0.432391 3.440669 -1.043884
v -0.432391 3.440669 1.043884
v -0.798954 3.440669 0.798954
v 0.798954 3.440669 -0.798954
v -1.043884 3.440669 0.432391
v 0.000000 4.322573 0.000000
vn 0.9808 0.0000 0.1951
vn 0.8315 0.0000 0.5556
vn 0.5556 0.0000 0.8315
vn 0.1951 0.0000 0.9808
vn -0.1951 0.0000 0.9808
vn -0.5556 0.0000 0.8315
vn -0.8315 0.0000 0.5556
vn -0.9808 0.0000 0.1951
vn -0.9808 0.0000 -0.1951
vn -0.8315 0.0000 -0.5556
vn -0.5556 0.0000 -0.8315
vn -0.1951 0.0000 -0.9808
vn 0.1951 0.0000 -0.9808
vn 0.5556 0.0000 -0.8315
vn 0.0000 -1.0000 0.0000
vn 0.9808 0.0000 -0.1951
vn 0.8315 0.0000 -0.5556
vn -0.1215 0.7825 0.6107
vn 0.6107 0.7825 -0.1215
vn -0.3460 0.7825 -0.5178
vn -0.3460 0.7825 0.5178
vn 0.6107 0.7825 0.1215
vn -0.1215 0.7825 -0.6107
vn -0.5178 0.7825 0.3460
vn 0.5178 0.7825 0.3460
vn 0.1215 0.7825 -0.6107
vn -0.6107 0.7825 0.1215
vn 0.3460 0.7825 0.5178
vn 0.3460 0.7825 -0.5178
vn -0.6107 0.7825 -0.1215
vn 0.1215 0.7825 0.6107
vn 0.5178 0.7825 -0.3460
vn -0.5178 0.7825 -0.3460
usemtl Default_OBJ
s off
f 2//1 4//1 1//1
f 3//2 6//2 4//2
f 5//3 8//3 6//3
f 7//4 10//4 8//4
f 9//5 12//5 10//5
f 11//6 14//6 12//6
f 13//7 16//7 14//7
f 15//8 18//8 16//8
f 17//9 20//9 18//9
f 19//10 22//10 20//10
f 21//11 24//11 22//11
f 23//12 26//12 24//12
f 25//13 28//13 26//13
f 27//14 30//14 28//14
f 2//15 32//15 33//15
f 1//16 31//16 2//16
f 29//17 34//17 30//17
f 1//15 4//15 34//15
f 4//15 30//15 34//15
f 4//15 6//15 30//15
f 6//15 28//15 30//15
f 6//15 8//15 28//15
f 8//15 26//15 28//15
f 8//15 10//15 26//15
f 10//15 24//15 26//15
f 10//15 12//15 24//15
f 12//15 14//15 24//15
f 14//15 22//15 24//15
f 14//15 16//15 22//15
f 16//15 20//15 22//15
f 16//15 18//15 20//15
f 19//15 35//15 36//15
f 5//15 37//15 38//15
f 23//15 39//15 40//15
f 7//15 42//15 9//15
f 25//15 44//15 27//15
f 3//15 33//15 37//15
f 11//15 46//15 13//15
f 31//15 47//15 32//15
f 15//15 35//15 17//15
f 21//15 36//15 39//15
f 5//15 41//15 7//15
f 25//15 40//15 43//15
f 9//15 45//15 11//15
f 27//15 47//15 29//15
f 13//15 48//15 15//15
f 45//18 42//18 49//18
f 33//19 32//19 49//19
f 40//20 39//20 49//20
f 46//21 45//21 49//21
f 37//22 33//22 49//22
f 43//23 40//23 49//23
f 48//24 46//24 49//24
f 38//25 37//25 49//25
f 44//26 43//26 49//26
f 35//27 48//27 49//27
f 41//28 38//28 49//28
f 47//29 44//29 49//29
f 36//30 35//30 49//30
f 42//31 41//31 49//31
f 32//32 47//32 49//32
f 39//33 36//33 49//33
f 2//1 3//1 4//1
f 3//2 5//2 6//2
f 5//3 7//3 8//3
f 7//4 9//4 10//4
f 9//5 11//5 12//5
f 11//6 13//6 14//6
f 13//7 15//7 16//7
f 15//8 17//8 18//8
f 17//9 19//9 20//9
f 19//10 21//10 22//10
f 21//11 23//11 24//11
f 23//12 25//12 26//12
f 25//13 27//13 28//13
f 27//14 29//14 30//14
f 2//15 31//15 32//15
f 1//16 34//16 31//16
f 29//17 31//17 34//17
f 19//15 17//15 35//15
f 5//15 3//15 37//15
f 23//15 21//15 39//15
f 7//15 41//15 42//15
f 25//15 43//15 44//15
f 3//15 2//15 33//15
f 11//15 45//15 46//15
f 31//15 29//15 47//15
f 15//15 48//15 35//15
f 21//15 19//15 36//15
f 5//15 38//15 41//15
f 25//15 23//15 40//15
f 9//15 42//15 45//15
f 27//15 44//15 47//15
f 13//15 46//15 48//15
